<svg width="41" height="47" viewBox="0 0 41 47" fill="none" xmlns="http://www.w3.org/2000/svg">
<path d="M38.2679 12.1238L41.0001 11.3766C39.4725 6.69492 36.1025 2.72203 31.5112 0.187378L30.0378 2.42366C34.022 4.62183 36.9436 8.06682 38.2679 12.1238V12.1238Z" fill="white"/>
<path d="M20.9191 47.0001C25.6764 47.0001 29.8692 44.3376 32.5408 40.2858H9.29736C11.969 44.3376 16.1618 47.0001 20.9191 47.0001V47.0001Z" fill="white"/>
<path d="M10.9624 2.42375L9.48904 0.187378C4.89772 2.72203 1.52771 6.69492 0 11.3766L2.7322 12.1238C4.05657 8.06682 6.97824 4.62183 10.9624 2.42375V2.42375Z" fill="white"/>
<path d="M4.81439 16.9726V30.9674C4.81439 31.8089 4.45646 32.6007 3.80621 33.1961C2.61693 34.2849 1.9624 35.732 1.9624 37.271V39.3415H39.0382V37.271C39.0382 35.732 38.3837 34.2849 37.1944 33.1961C36.5442 32.6007 36.1862 31.8089 36.1862 30.9674V16.9726C36.1862 9.49427 29.9089 3.33994 21.9263 2.67731V0H19.0743V2.67731C11.0917 3.33994 4.81439 9.49427 4.81439 16.9726Z" fill="white"/>
</svg>
